<?xml version="1.0" encoding="UTF-8" standalone="no"?>
<svg
   xmlns:dc="http://purl.org/dc/elements/1.1/"
   xmlns:cc="http://creativecommons.org/ns#"
   xmlns:rdf="http://www.w3.org/1999/02/22-rdf-syntax-ns#"
   xmlns:svg="http://www.w3.org/2000/svg"
   xmlns="http://www.w3.org/2000/svg"
   xmlns:sodipodi="http://sodipodi.sourceforge.net/DTD/sodipodi-0.dtd"
   xmlns:inkscape="http://www.inkscape.org/namespaces/inkscape"
   version="1.0"
   width="163.60001mm"
   height="139.28mm"
   id="svg29"
   sodipodi:docname="Sem título-1.emf">
  <metadata
     id="metadata33">
    <rdf:RDF>
      <cc:Work
         rdf:about="">
        <dc:format>image/svg+xml</dc:format>
        <dc:type
           rdf:resource="http://purl.org/dc/dcmitype/StillImage" />
      </cc:Work>
    </rdf:RDF>
  </metadata>
  <sodipodi:namedview
     pagecolor="#ffffff"
     bordercolor="#666666"
     borderopacity="1"
     objecttolerance="10"
     gridtolerance="10"
     guidetolerance="10"
     inkscape:pageopacity="0"
     inkscape:pageshadow="2"
     inkscape:window-width="640"
     inkscape:window-height="480"
     id="namedview31" />
  <defs
     id="defs3">
    <pattern
       id="EMFhbasepattern"
       patternUnits="userSpaceOnUse"
       width="6"
       height="6"
       x="0"
       y="0" />
  </defs>
  <path
     style="fill:#221f20;fill-rule:evenodd;fill-opacity:1;stroke:none;"
     d="  M 38.281214,378.46547   C 34.236252,357.94967 52.986728,342.61005 73.211536,349.3353   C 81.7551,352.16898 90.071843,355.45604 98.691014,358.40306   C 108.06625,361.61456 117.06346,363.84371 121.22183,370.45562   C 126.96794,379.56116 123.86806,389.00674 117.5927,394.59852   C 110.52347,400.87038 97.292289,398.86792 87.085376,398.86792   C 78.314993,398.9057 61.265668,399.96361 54.12083,397.05437   C 46.446744,393.95622 40.171383,388.0244 38.281214,378.46547   z  M 60.736421,259.98012   C 49.849048,259.90456 38.923871,259.98012 27.998695,259.98012   C 15.221153,259.94234 8.8323815,260.8869 4.0313524,270.14357   C -0.46724977,278.72015 2.0655766,289.79037 8.681168,294.02199   C 11.251798,295.68441 30.607128,301.72958 34.311859,302.3341   C 28.414532,317.44703 15.183349,321.03635 10.646944,369.58663   C 7.2446396,405.7443 9.3994322,463.28677 9.0213984,503.29825   C 8.8323815,525.17421 11.062781,525.74094 32.232673,525.74094   C 40.284793,525.74094 71.359171,526.91219 76.235807,524.53191   C 78.088172,523.58735 80.545392,521.05593 81.566083,518.789   C 82.889201,515.80419 82.586774,511.87483 82.586774,508.36108   C 82.548971,500.69127 82.586774,492.98367 82.586774,485.31386   L 219.13258,485.31386   L 219.28379,457.84612   C 213.84011,456.56152 196.75298,457.35495 190.06178,457.35495   C 176.37696,457.39273 172.89905,459.13072 172.93685,444.24448   C 172.97465,420.85723 180.95117,432.64531 219.01917,429.32047   L 219.24599,302.93862   C 199.62604,300.33164 75.895576,306.07455 69.733625,300.52055   C 64.063119,295.41994 70.111659,286.84335 72.984716,282.53617   C 76.651644,277.01995 79.449094,271.88155 82.964808,266.36534   L 112.11121,219.59083   C 126.28748,198.13047 147.41957,199.03725 168.09802,199.03725   C 179.62805,199.03725 209.98416,200.51076 219.28379,198.65942   L 219.24599,177.27463   C 213.38647,176.44342 169.30773,177.01016 159.66786,177.01016   C 133.2433,177.01016 110.41006,184.03767 95.893564,204.25121   C 89.80722,212.71444 78.95765,231.53004 72.493272,241.58014   z "
     id="path5" />
  <path
     style="fill:#221f20;fill-rule:evenodd;fill-opacity:1;stroke:none;"
     d="  M 267.4453,86.294812   L 316.58969,86.181465   C 313.45201,72.768743 314.51051,68.537123 313.60322,55.086618   C 302.41342,53.499761 280.10943,54.822142 267.67212,54.822142   C 251.71909,54.822142 242.04143,57.39134 237.08919,70.426239   C 234.21613,77.982702 235.65266,147.72886 235.65266,161.67053   L 235.65266,440.01286   C 235.65266,455.50361 235.65266,470.95658 235.65266,486.40955   C 235.65266,503.29825 235.23682,515.01076 246.54003,521.88715   C 256.55793,527.9701 275.49742,525.74094 288.7664,525.74094   L 566.43222,525.74094   C 579.17196,525.77872 598.71631,528.08345 608.73421,521.96271   C 621.73857,514.02842 619.8106,500.16231 619.8106,486.40955   L 619.8106,347.25728   C 619.8106,285.40762 619.8106,223.55797 619.8106,161.67053   C 619.8106,147.04878 621.39834,78.776131 618.29846,70.237327   C 612.85477,55.351094 599.09434,54.822142 587.52651,54.822142   C 572.36736,54.822142 557.1704,54.935489 542.01124,54.822142   C 541.02835,60.451707 541.86003,66.459096 541.5576,72.202008   C 541.25517,77.491532 539.17599,82.66771 538.98697,86.25703   L 588.28258,86.445941   L 587.86674,494.23049   L 267.18068,494.15492   z "
     id="path7" />
  <path
     style="fill:#221f20;fill-rule:evenodd;fill-opacity:1;stroke:none;"
     d="  M 424.17811,23.236125   C 446.93574,17.757689 453.58914,52.630768 431.81439,57.466904   C 409.62381,62.45417 400.09736,29.054602 424.17811,23.236125   z  M 387.39542,40.200385   C 377.49094,40.918249 341.99356,38.575746 335.90722,41.74946   C 328.61117,45.565474 330.1233,54.217625 330.0855,63.020905   C 330.0855,71.861967 330.42573,78.662784 334.5841,85.576948   C 342.33379,98.422936 353.37238,100.72766 373.18135,100.72766   L 481.1856,100.72766   C 489.72917,100.72766 498.08372,101.44552 505.68219,98.460718   C 531.53971,88.22171 528.74226,47.681284 519.89627,42.013937   C 513.5453,37.895664 478.76619,41.976154 468.06783,39.973691   C 467.19835,17.871036 450.48926,0.18891159 428.03405,0   C 415.78576,-0.11334695 405.12521,5.8562591 399.26568,11.485824   C 397.29991,13.412723 392.7257,19.533458 390.98674,23.462819   C 388.79415,28.487867 387.66004,34.117432 387.39542,40.200385   z "
     id="path9" />
  <path
     style="fill:#221f20;fill-rule:evenodd;fill-opacity:1;stroke:none;"
     d="  M 393.14153,177.04794   L 555.05341,177.01016   L 555.05341,155.47423   L 393.10373,155.5498   z "
     id="path11" />
  <path
     style="fill:#221f20;fill-rule:evenodd;fill-opacity:1;stroke:none;"
     d="  M 393.14153,340.68315   L 555.05341,340.64537   L 555.05341,319.10945   L 393.10373,319.18501   z "
     id="path13" />
  <path
     style="fill:#221f20;fill-rule:evenodd;fill-opacity:1;stroke:none;"
     d="  M 393.14153,422.51965   L 555.05341,422.44409   L 555.05341,400.94595   L 393.10373,401.02151   z "
     id="path15" />
  <path
     style="fill:#221f20;fill-rule:evenodd;fill-opacity:1;stroke:none;"
     d="  M 393.17934,258.84665   L 555.05341,258.80887   L 555.05341,237.31073   L 393.10373,237.3863   z "
     id="path17" />
  <path
     style="fill:#221f20;fill-rule:evenodd;fill-opacity:1;stroke:none;"
     d="  M 328.45995,317.10699   C 321.39072,313.6688 317.23235,301.57845 307.7059,303.69426   C 303.2451,304.6766 299.9562,309.02157 300.56106,314.27331   C 301.27932,320.39405 322.14679,340.00307 326.83441,340.49424   C 334.65971,341.32545 339.64975,333.54229 347.47505,325.75914   C 350.80175,322.47208 371.97164,302.59858 372.91673,298.85813   C 375.18493,289.90372 364.8268,280.83596 355.33816,290.62158   C 349.97008,296.21337 332.3159,314.42444 328.45995,317.10699   z "
     id="path19" />
  <path
     style="fill:#221f20;fill-rule:evenodd;fill-opacity:1;stroke:none;"
     d="  M 328.45995,398.94349   C 319.84078,394.74965 317.95061,383.22604 307.7059,385.49298   C 303.32071,386.47532 299.9562,390.82029 300.56106,396.07203   C 301.27932,402.23055 322.03338,421.80179 326.83441,422.33074   C 334.6219,423.19973 339.61195,415.45436 347.47505,407.59564   C 353.44799,401.62603 358.81607,396.26094 364.789,390.29133   C 366.60356,388.47778 372.16066,383.83056 372.91673,380.69463   C 374.35326,375.02728 370.95095,370.4934 367.39743,368.98211   C 361.53791,366.52626 358.21121,369.62441 355.37596,372.45808   C 352.23828,375.66958 349.70545,378.16321 346.52997,381.33693   C 341.95576,385.94637 333.10977,395.76977 328.45995,398.94349   z "
     id="path21" />
  <path
     style="fill:#221f20;fill-rule:evenodd;fill-opacity:1;stroke:none;"
     d="  M 328.45995,153.47177   C 322.2602,150.44919 317.15674,137.94324 307.7059,140.09683   C 303.69874,141.00361 299.9184,145.19744 300.56106,150.6381   C 301.27932,156.64549 322.03338,176.25451 326.83441,176.82124   C 334.50849,177.7658 339.87657,169.71817 347.47505,162.12392   C 350.80175,158.79908 371.93384,138.8878 372.87892,135.22291   C 374.99591,127.06193 365.65848,116.67179 355.33816,126.98637   C 349.59204,132.76706 332.42931,150.75144 328.45995,153.47177   z "
     id="path23" />
  <path
     style="fill:#221f20;fill-rule:evenodd;fill-opacity:1;stroke:none;"
     d="  M 328.45995,235.30827   C 322.2602,232.2479 317.11894,219.81752 307.66809,221.89555   C 303.2829,222.84011 299.99401,227.18507 300.52326,232.4746   C 301.16591,238.33086 321.95777,258.09101 326.83441,258.65774   C 333.60121,259.45117 335.6804,255.7485 338.59126,252.80148   L 364.7512,226.65612   C 366.56576,224.88035 372.12286,220.11978 372.91673,217.05941   C 375.03372,208.7473 365.65848,198.50829 355.37596,208.82287   C 349.74326,214.45243 332.16468,232.77686 328.45995,235.30827   z "
     id="path25" />
  <path
     style="fill:#221f20;fill-rule:evenodd;fill-opacity:1;stroke:none;"
     d="  M 424.17811,23.236125   C 400.09736,29.054602 409.62381,62.45417 431.81439,57.466904   C 453.58914,52.630768 446.93574,17.757689 424.17811,23.236125   z "
     id="path27" />
</svg>
